<svg width="128" height="32" viewBox="0 0 128 32" fill="none" xmlns="http://www.w3.org/2000/svg">
    <path
        d="M14.3997 31.5806H8.79648V8.54596H0.352539V2.78228H22.824V8.54596H14.3997V31.5806ZM31.5423 4.22821C31.5423 4.73698 31.4444 5.21226 31.2483 5.65407C31.0656 6.09591 30.811 6.48417 30.4844 6.81887C30.1578 7.1402 29.7726 7.40126 29.3285 7.60208C28.8973 7.78952 28.4338 7.88324 27.9373 7.88324C27.4411 7.88324 26.9709 7.78952 26.5268 7.60208C26.0958 7.40126 25.717 7.1402 25.3905 6.81887C25.0771 6.48417 24.8224 6.09591 24.6264 5.65407C24.4436 5.21226 24.3522 4.73698 24.3522 4.22821C24.3522 3.73285 24.4436 3.26426 24.6264 2.82245C24.8224 2.36723 25.0771 1.97897 25.3905 1.65765C25.717 1.32294 26.0958 1.06188 26.5268 0.87444C26.9709 0.673621 27.4411 0.573212 27.9373 0.573212C28.4338 0.573212 28.8973 0.673621 29.3285 0.87444C29.7726 1.06188 30.1578 1.32294 30.4844 1.65765C30.811 1.97897 31.0656 2.36723 31.2483 2.82245C31.4444 3.26426 31.5423 3.73285 31.5423 4.22821ZM30.6216 31.5806H25.2338V10.0722H30.6216V31.5806ZM53.0538 14.3498L49.1353 18.3864C48.9395 17.8241 48.6718 17.322 48.3321 16.8802C47.9926 16.425 47.6074 16.0435 47.1763 15.7355C46.7584 15.4276 46.3013 15.1933 45.8048 15.0326C45.3086 14.872 44.7991 14.7916 44.2767 14.7916C43.5453 14.7916 42.8531 14.9456 42.2001 15.2535C41.56 15.5614 40.9983 15.9966 40.5152 16.5589C40.045 17.1078 39.6726 17.7639 39.3985 18.5271C39.1243 19.2902 38.9871 20.1336 38.9871 21.0574C38.9871 21.807 39.1243 22.51 39.3985 23.1662C39.6726 23.822 40.045 24.3979 40.5152 24.893C40.9983 25.3885 41.56 25.7768 42.2001 26.0578C42.8531 26.3391 43.5453 26.4795 44.2767 26.4795C44.7991 26.4795 45.302 26.406 45.7853 26.2588C46.2687 26.1116 46.7191 25.904 47.1372 25.6361C47.5681 25.3551 47.9469 25.0203 48.2735 24.632C48.6129 24.2303 48.8874 23.7886 49.0963 23.3066L53.0145 27.3432C52.5183 28.0663 51.9435 28.7156 51.2905 29.2911C50.6504 29.8669 49.9517 30.3555 49.1942 30.7572C48.4498 31.1589 47.6596 31.4603 46.8237 31.661C46.0009 31.8751 45.1519 31.9823 44.2767 31.9823C42.8009 31.9823 41.41 31.701 40.1038 31.1389C38.8108 30.5631 37.6745 29.78 36.6949 28.7891C35.7282 27.7984 34.9643 26.6402 34.4025 25.3148C33.8411 23.9893 33.5602 22.5704 33.5602 21.0574C33.5602 19.4105 33.8411 17.871 34.4025 16.4384C34.9643 15.0058 35.7282 13.7607 36.6949 12.703C37.6745 11.632 38.8108 10.7885 40.1038 10.1726C41.41 9.55678 42.8009 9.24886 44.2767 9.24886C45.1519 9.24886 46.0073 9.36265 46.8432 9.59025C47.6922 9.81786 48.4955 10.1526 49.253 10.5944C50.0237 11.0228 50.7288 11.5516 51.3689 12.1809C52.0218 12.8102 52.5836 13.5331 53.0538 14.3498ZM61.0667 31.5806H55.679V1.51707H61.0667V20.475L69.0403 10.1124H75.1923L68.2373 19.0692L75.1923 31.5806H69.0403L64.7891 23.7686L61.0667 28.8294V31.5806ZM83.6166 4.22821C83.6166 4.73698 83.5185 5.21226 83.3227 5.65407C83.1397 6.09591 82.8851 6.48417 82.5587 6.81887C82.2321 7.1402 81.8467 7.40126 81.4026 7.60208C80.9717 7.78952 80.5081 7.88324 80.0117 7.88324C79.5155 7.88324 79.0452 7.78952 78.6012 7.60208C78.17 7.40126 77.7913 7.1402 77.4649 6.81887C77.1514 6.48417 76.8968 6.09591 76.7007 5.65407C76.518 5.21226 76.4265 4.73698 76.4265 4.22821C76.4265 3.73285 76.518 3.26426 76.7007 2.82245C76.8968 2.36723 77.1514 1.97897 77.4649 1.65765C77.7913 1.32294 78.17 1.06188 78.6012 0.87444C79.0452 0.673621 79.5155 0.573212 80.0117 0.573212C80.5081 0.573212 80.9717 0.673621 81.4026 0.87444C81.8467 1.06188 82.2321 1.32294 82.5587 1.65765C82.8851 1.97897 83.1397 2.36723 83.3227 2.82245C83.5185 3.26426 83.6166 3.73285 83.6166 4.22821ZM82.6957 31.5806H77.3082V10.0722H82.6957V31.5806ZM97.3111 31.5806C96.018 31.5806 94.8033 31.333 93.667 30.8376C92.5307 30.3289 91.5317 29.6393 90.6695 28.769C89.8205 27.8853 89.1478 26.8612 88.6516 25.6964C88.1683 24.5317 87.9267 23.2865 87.9267 21.9611V15.5749H85.3211V10.1124H87.9267V1.51707H93.2556V10.1124H101.366V15.5749H93.2556V21.9611C93.2556 22.5369 93.36 23.079 93.5691 23.5879C93.778 24.0831 94.0653 24.5182 94.431 24.893C94.7969 25.2681 95.2278 25.5692 95.724 25.7968C96.2205 26.0112 96.7493 26.1181 97.3111 26.1181H101.366V31.5806H97.3111ZM120.762 31.5806H103.267L112.103 15.5749H103.267V10.1124H120.762L111.926 26.1181H120.762V31.5806Z"
        fill="#197278" />
    <path
        d="M127.795 14.9223C127.79 14.9199 127.786 14.9185 127.782 14.9163L126.032 13.8802C125.923 14.0074 125.774 14.092 125.611 14.1195C125.448 14.1471 125.281 14.1158 125.138 14.0312C124.995 13.9464 124.885 13.8135 124.826 13.6549C124.768 13.4963 124.765 13.322 124.819 13.1615L123.057 12.1182C123.009 12.0903 122.953 12.0827 122.9 12.0972C122.848 12.1117 122.803 12.147 122.775 12.1955L117.545 21.483L117.544 21.4835C117.531 21.5074 117.522 21.534 117.518 21.5614C117.515 21.5891 117.517 21.6168 117.524 21.6436C117.531 21.6705 117.543 21.6955 117.559 21.7177C117.576 21.7396 117.596 21.758 117.62 21.772L119.382 22.8139C119.491 22.6869 119.64 22.6025 119.803 22.5748C119.966 22.5474 120.133 22.5786 120.276 22.6631C120.419 22.7478 120.529 22.8805 120.587 23.0387C120.646 23.1969 120.649 23.3711 120.596 23.5315L122.336 24.56C122.343 24.5654 122.35 24.5712 122.357 24.5759C122.381 24.5899 122.407 24.5986 122.434 24.6025C122.46 24.606 122.488 24.6041 122.514 24.597C122.54 24.5899 122.564 24.5775 122.586 24.5605C122.607 24.5438 122.625 24.5227 122.639 24.4985V24.4988L127.87 15.2107C127.884 15.1867 127.892 15.1602 127.896 15.1327C127.899 15.1052 127.898 15.0773 127.89 15.0505C127.884 15.0237 127.871 14.9986 127.855 14.9766C127.839 14.9546 127.818 14.9362 127.795 14.9223ZM126.295 15.6433L122.217 22.8835C122.203 22.9077 122.185 22.9288 122.164 22.9455C122.142 22.9625 122.118 22.9748 122.092 22.982C122.066 22.9891 122.038 22.991 122.012 22.9875C121.985 22.9839 121.959 22.9749 121.935 22.9609L119.195 21.339C119.172 21.325 119.151 21.3067 119.135 21.2847C119.118 21.2628 119.106 21.2376 119.099 21.211C119.092 21.1841 119.09 21.1561 119.094 21.1287C119.098 21.1013 119.106 21.0747 119.12 21.0508L123.198 13.8105C123.225 13.762 123.27 13.7267 123.323 13.7122C123.375 13.6977 123.431 13.7053 123.479 13.7333L126.219 15.3552C126.243 15.3691 126.263 15.3875 126.28 15.4095C126.296 15.4314 126.308 15.4565 126.315 15.4833C126.322 15.51 126.324 15.5379 126.321 15.5654C126.317 15.5928 126.308 15.6193 126.295 15.6433Z"
        fill="#197278" />
    <path
        d="M124.098 18.1535L123.23 17.9879L123.108 17.1373C123.106 17.1248 123.101 17.1131 123.092 17.104C123.084 17.0948 123.072 17.0886 123.06 17.0862C123.048 17.0839 123.035 17.0854 123.024 17.0907C123.013 17.0959 123.004 17.1046 122.997 17.1156L122.576 17.863L121.73 17.7017C121.718 17.6994 121.705 17.701 121.694 17.7063C121.683 17.7116 121.673 17.7203 121.667 17.7313C121.661 17.7422 121.658 17.7548 121.659 17.7674C121.66 17.78 121.665 17.792 121.673 17.8016L122.233 18.4726L121.812 19.2197C121.806 19.231 121.803 19.2436 121.804 19.2562C121.805 19.2691 121.811 19.2812 121.819 19.2908C121.827 19.3004 121.838 19.3069 121.85 19.3099C121.862 19.313 121.874 19.3121 121.886 19.3075L122.665 18.9905L123.239 19.6785C123.247 19.6878 123.258 19.6946 123.27 19.6977C123.282 19.7007 123.294 19.6998 123.306 19.6955C123.317 19.6911 123.327 19.6831 123.334 19.6727C123.341 19.6623 123.345 19.6499 123.344 19.6373L123.329 18.7149L124.116 18.2669C124.127 18.2607 124.136 18.2513 124.141 18.2399C124.146 18.2286 124.148 18.2159 124.147 18.2034C124.144 18.191 124.138 18.1796 124.13 18.1706C124.121 18.1617 124.11 18.1557 124.098 18.1535Z"
        fill="#197278" />
</svg>