<?xml version="1.0" encoding="UTF-8" standalone="no"?>
<!-- Created with Inkscape (http://www.inkscape.org/) -->

<svg width="57.672989mm" height="57.672989mm" viewBox="0 0 57.672989 57.672989" version="1.1" id="svg5"
    sodipodi:docname="TICKITS.svg" inkscape:version="1.2.2 (b0a8486541, 2022-12-01)"
    xmlns:inkscape="http://www.inkscape.org/namespaces/inkscape"
    xmlns:sodipodi="http://sodipodi.sourceforge.net/DTD/sodipodi-0.dtd" xmlns="http://www.w3.org/2000/svg"
    xmlns:svg="http://www.w3.org/2000/svg">
    <sodipodi:namedview id="namedview7" pagecolor="#ffffff" bordercolor="#000000" borderopacity="0.25"
        inkscape:showpageshadow="2" inkscape:pageopacity="0.0" inkscape:pagecheckerboard="0"
        inkscape:deskcolor="#d1d1d1" inkscape:document-units="mm" showgrid="false" inkscape:zoom="0.50065937"
        inkscape:cx="432.42974" inkscape:cy="413.45476" inkscape:window-width="1366" inkscape:window-height="740"
        inkscape:window-x="0" inkscape:window-y="28" inkscape:window-maximized="1" inkscape:current-layer="layer1" />
    <defs id="defs2" />
    <g inkscape:label="Layer 1" inkscape:groupmode="layer" id="layer1" transform="translate(-138.7,-144.28001)">
        <rect style="fill:#197278;fill-opacity:1;stroke-width:0.264583" id="rect357-2" width="57.672981"
            height="57.672981" x="138.7" y="144.28" ry="28.836491" inkscape:export-filename="logo-circle.svg"
            inkscape:export-xdpi="96" inkscape:export-ydpi="96" />
        <path
            d="m 184.51302,161.01684 c -0.006,-0.005 -0.009,-0.008 -0.0134,-0.0141 l -2.08227,-2.07719 c -0.19793,0.13906 -0.43738,0.20438 -0.67547,0.18486 -0.23779,-0.0211 -0.46091,-0.12372 -0.63128,-0.29296 -0.17028,-0.16929 -0.27655,-0.39546 -0.30248,-0.63897 -0.0249,-0.24325 0.0337,-0.48836 0.16607,-0.69407 l -2.09647,-2.0916 c -0.0573,-0.0563 -0.13299,-0.087 -0.21223,-0.0857 -0.0782,0.002 -0.15397,0.0351 -0.21043,0.093 l -10.64747,11.14695 -0.002,5.9e-4 c -0.0243,0.0274 -0.0504,0.0624 -0.065,0.0996 -0.0138,0.0359 -0.0214,0.0775 -0.019,0.11756 7.6e-4,0.0397 0.008,0.0794 0.0212,0.11592 0.0182,0.0386 0.0385,0.0702 0.0658,0.0979 l 2.09702,2.08959 c 0.19794,-0.13907 0.43725,-0.20388 0.67549,-0.18488 0.23778,0.0211 0.4609,0.12371 0.63126,0.29297 0.17029,0.16929 0.27666,0.39493 0.30168,0.63761 0.0261,0.24299 -0.0318,0.48772 -0.16583,0.69323 l 2.07098,2.06293 c 0.009,0.008 0.0173,0.0211 0.026,0.0297 0.026,0.0297 0.0618,0.0498 0.0987,0.0646 0.0359,0.0138 0.0749,0.0223 0.11385,0.0228 0.0397,-7.6e-4 0.0767,-0.009 0.1141,-0.0274 0.0372,-0.0131 0.0681,-0.0391 0.0964,-0.0679 l -1.1e-4,4.1e-4 10.64906,-11.1475 c 0.0297,-0.026 0.0504,-0.0624 0.0649,-0.0995 0.0138,-0.036 0.0228,-0.0771 0.0189,-0.11756 -7.6e-4,-0.0397 -0.008,-0.0794 -0.0212,-0.11592 -0.0131,-0.0372 -0.0385,-0.0702 -0.0648,-0.0977 z m -2.35974,0.47453 -8.30161,8.68942 c -0.0297,0.026 -0.0592,0.052 -0.0964,0.0679 -0.0385,0.0182 -0.0756,0.0259 -0.1141,0.0274 -0.0397,7.5e-4 -0.0785,-0.009 -0.11385,-0.0228 -0.036,-0.0138 -0.0701,-0.0348 -0.0986,-0.0646 l -3.2604,-3.2519 c -0.026,-0.0297 -0.0498,-0.0629 -0.0648,-0.0977 -0.0131,-0.0372 -0.0255,-0.0769 -0.0212,-0.11542 -7.6e-4,-0.0397 0.009,-0.0795 0.0236,-0.11707 0.0154,-0.0354 0.0353,-0.0718 0.0649,-0.0995 l 8.30159,-8.68964 c 0.0543,-0.0584 0.13056,-0.0919 0.21044,-0.093 0.0786,-0.002 0.15413,0.0284 0.21069,0.0876 l 3.26005,3.25179 c 0.026,0.0297 0.0499,0.0629 0.0658,0.0979 0.0131,0.0372 0.0203,0.0752 0.0212,0.11542 7.5e-4,0.0397 -0.009,0.0788 -0.019,0.11757 -0.0154,0.0354 -0.0353,0.0718 -0.065,0.0996 z"
            id="path134-2-1-6" style="fill:#ffffff;stroke-width:1.44622" />
        <path
            d="m 178.1776,164.22422 -1.15724,-0.54209 0.13283,-1.23568 c 8e-4,-0.016 -0.002,-0.0344 -0.009,-0.053 -0.007,-0.0139 -0.0204,-0.0286 -0.0359,-0.037 -0.0157,-0.006 -0.0367,-0.0105 -0.0545,-0.008 -0.0181,0.002 -0.0313,0.015 -0.0461,0.0281 l -0.85772,0.89634 -1.12793,-0.52842 c -0.0158,-0.006 -0.0369,-0.0105 -0.0545,-0.008 -0.017,0.002 -0.0372,0.0131 -0.0461,0.0281 -0.0141,0.0134 -0.0183,0.0293 -0.0237,0.0505 -0.003,0.016 7.6e-4,0.0397 0.009,0.053 l 0.54509,1.14039 -0.85745,0.89605 c -0.0141,0.0134 -0.0184,0.0293 -0.0237,0.0505 -0.003,0.016 7.6e-4,0.0397 0.009,0.0531 0.006,0.0185 0.0204,0.0286 0.0359,0.037 0.0152,0.008 0.031,0.0111 0.0538,0.0105 l 1.20497,-0.16608 0.5586,1.16927 c 0.007,0.014 0.0204,0.0286 0.0359,0.037 0.0152,0.008 0.031,0.0111 0.0538,0.0105 0.017,-0.002 0.0359,-0.008 0.0452,-0.0223 0.0141,-0.0134 0.0243,-0.0274 0.0278,-0.0438 l 0.30835,-1.29805 1.2629,-0.34665 c 0.0185,-0.006 0.0313,-0.015 0.0461,-0.0281 0.01,-0.0145 0.0183,-0.0293 0.0237,-0.0505 -2.7e-4,-0.0171 -0.002,-0.0344 -0.0143,-0.0543 -0.007,-0.014 -0.0204,-0.0286 -0.0359,-0.037 z"
            id="path136-9-2-1" style="fill:#ffffff;stroke-width:1.44622" />
        <path id="text933-8"
            style="font-style:italic;font-variant:normal;font-weight:bold;font-stretch:normal;font-size:61.4063px;font-family:Righteous;-inkscape-font-specification:'Righteous Bold Italic';fill:#ffffff;fill-opacity:1;stroke-width:0.510457"
            d="m 152.58735,156.61372 v 6.86714 h 10.31268 v 27.44506 h 6.84322 v -19.66488 l -2.94654,-2.88262 c -0.91187,-0.89221 -0.92767,-2.34479 -0.0354,-3.25665 l 8.32453,-8.50805 z" />
    </g>
</svg>