<svg width="126" height="49" viewBox="0 0 126 49" fill="none" xmlns="http://www.w3.org/2000/svg">
<g clip-path="url(#clip0_466_449)">
<path d="M13.8811 38.9892H8.49058V16.8579H0.367188V11.3202H21.9856V16.8579H13.8811V38.9892ZM30.3729 12.7094C30.3729 13.1983 30.2787 13.6549 30.0901 14.0794C29.9143 14.5039 29.6694 14.8769 29.3551 15.1985C29.0409 15.5072 28.6704 15.7581 28.2432 15.951C27.8284 16.1311 27.3824 16.2211 26.9048 16.2211C26.4274 16.2211 25.975 16.1311 25.5478 15.951C25.1332 15.7581 24.7688 15.5072 24.4547 15.1985C24.1531 14.8769 23.9081 14.5039 23.7196 14.0794C23.5437 13.6549 23.4557 13.1983 23.4557 12.7094C23.4557 12.2335 23.5437 11.7833 23.7196 11.3588C23.9081 10.9214 24.1531 10.5484 24.4547 10.2397C24.7688 9.9181 25.1332 9.66728 25.5478 9.48719C25.975 9.29425 26.4274 9.19778 26.9048 9.19778C27.3824 9.19778 27.8284 9.29425 28.2432 9.48719C28.6704 9.66728 29.0409 9.9181 29.3551 10.2397C29.6694 10.5484 29.9143 10.9214 30.0901 11.3588C30.2787 11.7833 30.3729 12.2335 30.3729 12.7094ZM29.4872 38.9892H24.3039V18.3243H29.4872V38.9892ZM51.0678 22.4341L47.2981 26.3124C47.1097 25.7722 46.8521 25.2898 46.5253 24.8653C46.1988 24.4279 45.8282 24.0613 45.4134 23.7655C45.0114 23.4696 44.5716 23.2445 44.094 23.0901C43.6167 22.9358 43.1264 22.8586 42.6239 22.8586C41.9203 22.8586 41.2543 23.0066 40.6262 23.3024C40.0104 23.5982 39.47 24.0163 39.0052 24.5566C38.5528 25.084 38.1946 25.7143 37.9308 26.4476C37.6671 27.1807 37.5351 27.9911 37.5351 28.8786C37.5351 29.5989 37.6671 30.2743 37.9308 30.9047C38.1946 31.5349 38.5528 32.0881 39.0052 32.5639C39.47 33.0399 40.0104 33.413 40.6262 33.683C41.2543 33.9533 41.9203 34.0882 42.6239 34.0882C43.1264 34.0882 43.6102 34.0176 44.0752 33.8761C44.5403 33.7346 44.9736 33.5352 45.3758 33.2778C45.7904 33.0078 46.1548 32.6861 46.469 32.3131C46.7955 31.9272 47.0596 31.5028 47.2605 31.0396L51.03 34.918C50.5526 35.6127 49.9996 36.2365 49.3715 36.7895C48.7557 37.3427 48.0835 37.8122 47.3547 38.1981C46.6386 38.584 45.8784 38.8736 45.0742 39.0664C44.2827 39.2722 43.4659 39.3752 42.6239 39.3752C41.2042 39.3752 39.866 39.1049 38.6094 38.5648C37.3655 38.0116 36.2723 37.2592 35.33 36.3071C34.4 35.3553 33.665 34.2425 33.1246 32.9691C32.5844 31.6956 32.3142 30.3323 32.3142 28.8786C32.3142 27.2964 32.5844 25.8172 33.1246 24.4408C33.665 23.0644 34.4 21.8681 35.33 20.8519C36.2723 19.8229 37.3655 19.0125 38.6094 18.4208C39.866 17.829 41.2042 17.5332 42.6239 17.5332C43.4659 17.5332 44.2888 17.6425 45.093 17.8612C45.9098 18.0799 46.6826 18.4015 47.4113 18.826C48.1527 19.2376 48.8311 19.7457 49.4469 20.3503C50.075 20.9548 50.6154 21.6495 51.0678 22.4341ZM58.7766 38.9892H53.5933V10.1046H58.7766V28.3191L66.4475 18.3629H72.3659L65.6749 26.9684L72.3659 38.9892H66.4475L62.3576 31.4835L58.7766 36.3459V38.9892ZM80.4704 12.7094C80.4704 13.1983 80.376 13.6549 80.1876 14.0794C80.0116 14.5039 79.7666 14.8769 79.4527 15.1985C79.1385 15.5072 78.7677 15.7581 78.3405 15.951C77.9259 16.1311 77.4799 16.2211 77.0023 16.2211C76.525 16.2211 76.0726 16.1311 75.6454 15.951C75.2306 15.7581 74.8662 15.5072 74.5522 15.1985C74.2506 14.8769 74.0057 14.5039 73.817 14.0794C73.6413 13.6549 73.5533 13.1983 73.5533 12.7094C73.5533 12.2335 73.6413 11.7833 73.817 11.3588C74.0057 10.9214 74.2506 10.5484 74.5522 10.2397C74.8662 9.9181 75.2306 9.66728 75.6454 9.48719C76.0726 9.29425 76.525 9.19778 77.0023 9.19778C77.4799 9.19778 77.9259 9.29425 78.3405 9.48719C78.7677 9.66728 79.1385 9.9181 79.4527 10.2397C79.7666 10.5484 80.0116 10.9214 80.1876 11.3588C80.376 11.7833 80.4704 12.2335 80.4704 12.7094ZM79.5844 38.9892H74.4014V18.3243H79.5844V38.9892ZM93.645 38.9892C92.401 38.9892 91.2325 38.7513 90.1393 38.2753C89.0461 37.7866 88.085 37.1241 87.2556 36.2879C86.4388 35.4388 85.7916 34.4549 85.3143 33.3358C84.8493 32.2167 84.6169 31.0204 84.6169 29.7469V23.6111H82.1102V18.3629H84.6169V10.1046H89.7435V18.3629H97.5464V23.6111H89.7435V29.7469C89.7435 30.3001 89.8439 30.821 90.0451 31.3099C90.2461 31.7857 90.5225 32.2038 90.8743 32.5639C91.2263 32.9243 91.6408 33.2135 92.1182 33.4322C92.5958 33.6382 93.1046 33.7409 93.645 33.7409H97.5464V38.9892H93.645ZM116.206 38.9892H99.3748L107.875 23.6111H99.3748V18.3629H116.206L107.706 33.7409H116.206V38.9892Z" fill="white"/>
<path d="M122.97 22.9842C122.966 22.9818 122.961 22.9805 122.957 22.9784L121.274 21.9829C121.169 22.1052 121.026 22.1864 120.869 22.2129C120.713 22.2393 120.552 22.2093 120.414 22.128C120.276 22.0466 120.17 21.9188 120.114 21.7665C120.058 21.6141 120.056 21.4466 120.107 21.2924L118.412 20.29C118.366 20.2632 118.312 20.256 118.262 20.2699C118.211 20.2838 118.167 20.3177 118.141 20.3643L113.109 29.2875L113.109 29.2881C113.096 29.311 113.087 29.3365 113.084 29.3629C113.08 29.3895 113.082 29.4161 113.089 29.4419C113.096 29.4677 113.107 29.4917 113.123 29.513C113.139 29.5341 113.159 29.5518 113.181 29.5652L114.877 30.5663C114.982 30.4443 115.125 30.3632 115.281 30.3366C115.438 30.3102 115.599 30.3402 115.737 30.4214C115.874 30.5028 115.98 30.6303 116.036 30.7823C116.092 30.9343 116.095 31.1016 116.045 31.2557L117.719 32.2439C117.725 32.2491 117.732 32.2547 117.739 32.2592C117.762 32.2726 117.786 32.281 117.812 32.2847C117.838 32.2881 117.864 32.2863 117.889 32.2794C117.915 32.2726 117.938 32.2607 117.959 32.2444C117.979 32.2283 117.997 32.208 118.01 32.1849V32.1851L123.042 23.2613C123.055 23.2382 123.064 23.2127 123.067 23.1863C123.071 23.1599 123.069 23.1331 123.062 23.1073C123.055 23.0816 123.044 23.0575 123.028 23.0363C123.012 23.0152 122.992 22.9975 122.97 22.9842ZM121.527 23.6769L117.604 30.6332C117.591 30.6564 117.573 30.6767 117.553 30.6927C117.532 30.7091 117.509 30.7209 117.484 30.7278C117.458 30.7346 117.432 30.7365 117.406 30.733C117.381 30.7296 117.356 30.7209 117.333 30.7075L114.697 29.1492C114.674 29.1358 114.654 29.1181 114.639 29.0971C114.623 29.076 114.611 29.0518 114.605 29.0262C114.598 29.0004 114.596 28.9735 114.599 28.9472C114.603 28.9208 114.611 28.8953 114.624 28.8724L118.547 21.916C118.574 21.8694 118.617 21.8354 118.668 21.8215C118.718 21.8076 118.772 21.8149 118.818 21.8417L121.455 23.4001C121.477 23.4134 121.497 23.4311 121.512 23.4522C121.528 23.4733 121.54 23.4974 121.547 23.5231C121.553 23.5488 121.555 23.5756 121.552 23.602C121.548 23.6284 121.54 23.6539 121.527 23.6769Z" fill="white"/>
<path d="M119.413 26.0886L118.578 25.9296L118.46 25.1123C118.459 25.1002 118.453 25.089 118.445 25.0802C118.437 25.0714 118.426 25.0655 118.414 25.0632C118.402 25.0609 118.39 25.0624 118.38 25.0675C118.369 25.0725 118.36 25.0809 118.354 25.0914L117.949 25.8096L117.134 25.6545C117.123 25.6523 117.111 25.6539 117.1 25.659C117.089 25.6641 117.08 25.6724 117.074 25.6829C117.068 25.6935 117.066 25.7056 117.067 25.7177C117.068 25.7298 117.072 25.7413 117.08 25.7505L117.619 26.3952L117.213 27.1131C117.207 27.1239 117.205 27.136 117.206 27.1481C117.207 27.1605 117.212 27.1721 117.22 27.1813C117.227 27.1905 117.238 27.1968 117.25 27.1997C117.261 27.2026 117.273 27.2018 117.284 27.1974L118.034 26.8928L118.586 27.5538C118.594 27.5628 118.604 27.5693 118.616 27.5722C118.627 27.5751 118.639 27.5743 118.65 27.5701C118.662 27.5659 118.671 27.5583 118.678 27.5483C118.684 27.5383 118.688 27.5264 118.688 27.5143L118.673 26.6281L119.43 26.1976C119.441 26.1916 119.449 26.1826 119.454 26.1717C119.459 26.1608 119.461 26.1486 119.459 26.1366C119.457 26.1247 119.452 26.1137 119.443 26.1051C119.435 26.0965 119.424 26.0908 119.413 26.0886Z" fill="white"/>
</g>
<defs>
<clipPath id="clip0_466_449">
<rect x="0.0273438" width="125.065" height="49" rx="16" fill="white"/>
</clipPath>
</defs>
</svg>
