<svg width="79" height="21" viewBox="0 0 79 21" fill="none" xmlns="http://www.w3.org/2000/svg">
<path d="M9.41513 20.258H5.75151V5.35317H0.230469V1.62373H14.9234V5.35317H9.41513V20.258ZM20.6238 2.55933C20.6238 2.88854 20.5597 3.19608 20.4315 3.48195C20.3121 3.76784 20.1456 4.01907 19.932 4.23565C19.7185 4.44356 19.4666 4.61248 19.1763 4.74243C18.8944 4.86371 18.5913 4.92435 18.2667 4.92435C17.9422 4.92435 17.6348 4.86371 17.3444 4.74243C17.0626 4.61248 16.815 4.44356 16.6015 4.23565C16.3965 4.01907 16.23 3.76784 16.1019 3.48195C15.9823 3.19608 15.9225 2.88854 15.9225 2.55933C15.9225 2.23881 15.9823 1.9356 16.1019 1.64972C16.23 1.35517 16.3965 1.10395 16.6015 0.896029C16.815 0.679453 17.0626 0.510532 17.3444 0.389249C17.6348 0.259307 17.9422 0.194336 18.2667 0.194336C18.5913 0.194336 18.8944 0.259307 19.1763 0.389249C19.4666 0.510532 19.7185 0.679453 19.932 0.896029C20.1456 1.10395 20.3121 1.35517 20.4315 1.64972C20.5597 1.9356 20.6238 2.23881 20.6238 2.55933ZM20.0218 20.258H16.499V6.34076H20.0218V20.258ZM34.689 9.10861L32.1269 11.7205C31.9989 11.3567 31.8238 11.0318 31.6017 10.7459C31.3798 10.4514 31.1279 10.2045 30.846 10.0052C30.5728 9.80599 30.2739 9.65439 29.9493 9.55042C29.6248 9.44647 29.2917 9.39448 28.9501 9.39448C28.4719 9.39448 28.0193 9.49412 27.5924 9.69337C27.1738 9.89261 26.8065 10.1742 26.4907 10.538C26.1832 10.8932 25.9398 11.3177 25.7605 11.8116C25.5812 12.3053 25.4915 12.8511 25.4915 13.4488C25.4915 13.9338 25.5812 14.3887 25.7605 14.8133C25.9398 15.2377 26.1832 15.6103 26.4907 15.9307C26.8065 16.2513 27.1738 16.5025 27.5924 16.6844C28.0193 16.8664 28.4719 16.9572 28.9501 16.9572C29.2917 16.9572 29.6205 16.9097 29.9365 16.8144C30.2525 16.7192 30.5471 16.5848 30.8204 16.4115C31.1022 16.2297 31.3498 16.013 31.5634 15.7618C31.7853 15.5019 31.9648 15.2161 32.1014 14.9042L34.6633 17.5161C34.3388 17.984 33.963 18.4041 33.5361 18.7765C33.1175 19.1491 32.6607 19.4652 32.1654 19.7252C31.6787 19.9851 31.162 20.1801 30.6155 20.3099C30.0775 20.4485 29.5223 20.5179 28.9501 20.5179C27.9852 20.5179 27.0757 20.3358 26.2217 19.9721C25.3762 19.5996 24.6333 19.0928 23.9928 18.4517C23.3607 17.8106 22.8612 17.0612 22.4939 16.2036C22.1268 15.3459 21.9432 14.4278 21.9432 13.4488C21.9432 12.3832 22.1268 11.387 22.4939 10.46C22.8612 9.5331 23.3607 8.72744 23.9928 8.04305C24.6333 7.35001 25.3762 6.80423 26.2217 6.40573C27.0757 6.00723 27.9852 5.80799 28.9501 5.80799C29.5223 5.80799 30.0817 5.88162 30.6282 6.02889C31.1833 6.17617 31.7086 6.39275 32.2039 6.67862C32.7078 6.95584 33.1688 7.29803 33.5873 7.70519C34.0142 8.11236 34.3815 8.58017 34.689 9.10861ZM39.9282 20.258H36.4054V0.805066H39.9282V13.0719L45.1417 6.36675H49.1642L44.6167 12.1623L49.1642 20.258H45.1417L42.3621 15.2031L39.9282 18.4777V20.258ZM54.6724 2.55933C54.6724 2.88854 54.6082 3.19608 54.4802 3.48195C54.3605 3.76784 54.194 4.01907 53.9807 4.23565C53.7671 4.44356 53.5151 4.61248 53.2248 4.74243C52.943 4.86371 52.6399 4.92435 52.3153 4.92435C51.9909 4.92435 51.6834 4.86371 51.3931 4.74243C51.1111 4.61248 50.8635 4.44356 50.6501 4.23565C50.4451 4.01907 50.2786 3.76784 50.1504 3.48195C50.031 3.19608 49.9711 2.88854 49.9711 2.55933C49.9711 2.23881 50.031 1.9356 50.1504 1.64972C50.2786 1.35517 50.4451 1.10395 50.6501 0.896029C50.8635 0.679453 51.1111 0.510532 51.3931 0.389249C51.6834 0.259307 51.9909 0.194336 52.3153 0.194336C52.6399 0.194336 52.943 0.259307 53.2248 0.389249C53.5151 0.510532 53.7671 0.679453 53.9807 0.896029C54.194 1.10395 54.3605 1.35517 54.4802 1.64972C54.6082 1.9356 54.6724 2.23881 54.6724 2.55933ZM54.0702 20.258H50.5476V6.34076H54.0702V20.258ZM63.6264 20.258C62.781 20.258 61.9868 20.0977 61.2438 19.7771C60.5008 19.448 59.8476 19.0018 59.2839 18.4387C58.7288 17.8669 58.2889 17.2042 57.9645 16.4505C57.6484 15.6969 57.4905 14.8912 57.4905 14.0336V9.90128H55.7868V6.36675H57.4905V0.805066H60.9748V6.36675H66.278V9.90128H60.9748V14.0336C60.9748 14.4061 61.043 14.7569 61.1798 15.0862C61.3164 15.4066 61.5042 15.6882 61.7433 15.9307C61.9826 16.1734 62.2643 16.3682 62.5887 16.5155C62.9134 16.6542 63.2591 16.7234 63.6264 16.7234H66.278V20.258H63.6264ZM78.9598 20.258H67.5207L73.2979 9.90128H67.5207V6.36675H78.9598L73.1826 16.7234H78.9598V20.258Z" fill="#5F2EEA"/>
</svg>
