<svg width="134" height="24" viewBox="0 0 134 24" fill="none" xmlns="http://www.w3.org/2000/svg">
<path d="M9.54707 0.844893C10.1726 0.844893 10.7355 0.965747 11.2359 1.20745C11.7542 1.429 12.2278 1.68077 12.6567 1.96275C13.1034 2.24474 13.5234 2.50657 13.9166 2.74828C14.3097 2.96983 14.7119 3.08061 15.1229 3.08061C15.4445 3.06047 15.8109 3.01011 16.2219 2.92955C16.5794 2.84898 16.9904 2.72814 17.455 2.567C17.9375 2.38573 18.4737 2.12388 19.0634 1.78148C18.4737 2.42601 17.9912 2.96983 17.6159 3.41295C17.2585 3.83592 16.9814 4.1884 16.7849 4.47038C16.5525 4.79265 16.3828 5.04442 16.2756 5.22569C16.1683 5.44725 16.0075 5.77959 15.7931 6.2227C15.5964 6.62553 15.3284 7.16936 14.9889 7.85417C14.6493 8.51884 14.2204 9.39504 13.7022 10.4827C13.7022 9.09289 13.577 8.0153 13.3269 7.24993C13.0945 6.48454 12.8354 5.90043 12.5494 5.4976C12.2099 5.03435 11.8256 4.7423 11.3967 4.62144C11.0036 4.56102 10.6105 4.64159 10.2172 4.86314C9.82409 5.06456 9.43094 5.36668 9.0378 5.76952C8.66249 6.17235 8.29611 6.65575 7.9387 7.21971C7.59916 7.76353 7.28641 8.33757 7.00047 8.94181C6.73241 9.54604 6.50902 10.1604 6.3303 10.7847C6.1516 11.3891 6.03544 11.953 5.98182 12.4767C5.92821 12.94 5.91927 13.4838 5.95501 14.1081C5.99075 14.7123 6.07117 15.3368 6.19627 15.9813C6.32137 16.6057 6.48221 17.22 6.67879 17.8242C6.87538 18.4285 7.11663 18.9723 7.40257 19.4557C7.70638 19.9189 8.04593 20.3017 8.42124 20.6038C8.79654 20.8857 9.22545 21.0167 9.70796 20.9966C10.2441 20.9563 10.7713 20.775 11.2895 20.4527C11.7363 20.1909 12.192 19.7881 12.6567 19.2443C13.1213 18.6802 13.5234 17.8847 13.863 16.8574L17.8303 17.6732C16.6866 19.2443 15.5697 20.4225 14.4795 21.208C13.4072 21.9936 12.4422 22.5474 11.5844 22.8697C10.5836 23.2323 9.63643 23.4035 8.74294 23.3833C7.61702 23.2423 6.56263 22.8596 5.57972 22.2353C4.59681 21.6109 3.74794 20.8556 3.03309 19.9693C2.33611 19.063 1.79105 18.076 1.39788 17.0085C1.00472 15.941 0.834943 14.8937 0.888557 13.8665C0.924299 13.1816 1.0494 12.386 1.26385 11.4796C1.4783 10.5531 1.76424 9.60645 2.12166 8.63965C2.49696 7.67289 2.94373 6.72624 3.462 5.79973C3.98025 4.87321 4.55213 4.0474 5.17762 3.32231C5.80311 2.57707 6.48221 1.98289 7.21492 1.53977C7.96551 1.07652 8.74294 0.844893 9.54707 0.844893ZM18.4797 9.66695L23.4121 9.72737C23.1261 10.956 22.9117 12.0033 22.7687 12.8694C22.6436 13.7355 22.5632 14.4606 22.5275 15.0447C22.456 15.7094 22.4381 16.2734 22.4739 16.7366C22.5275 17.1596 22.6169 17.6127 22.7419 18.0962C22.8492 18.499 23.01 18.9623 23.2244 19.4859C23.4389 20.0096 23.7248 20.5333 24.0822 21.057C23.8678 20.9764 23.6355 20.916 23.3853 20.8757C23.1351 20.8354 22.9028 20.8052 22.6883 20.7851C22.4381 20.7649 22.1879 20.7649 21.9377 20.7851C21.6875 20.8052 21.4105 20.8354 21.1067 20.8757C20.8565 20.916 20.5527 20.9664 20.1953 21.0268C19.8378 21.0872 19.4625 21.1678 19.0694 21.2685C19.3375 20.3621 19.543 19.5766 19.686 18.9119C19.8468 18.2472 19.963 17.6933 20.0344 17.2502C20.1059 16.7265 20.1506 16.3036 20.1685 15.9813C20.1685 15.5785 20.1685 15.1253 20.1685 14.6218C20.1685 14.0981 20.1685 13.5946 20.1685 13.1112C20.1685 12.6278 20.1595 12.2048 20.1417 11.8422C20.1238 11.4595 20.0881 11.2178 20.0344 11.1171L19.7664 10.815C19.6592 10.7143 19.4983 10.5732 19.2839 10.392C19.0873 10.1906 18.8192 9.94891 18.4797 9.66695ZM20.383 5.0142C20.7583 4.79265 21.1336 4.73222 21.5088 4.83293C21.902 4.93364 22.2058 5.12498 22.4203 5.40696C22.6347 5.68895 22.7062 6.02129 22.6347 6.40397C22.5811 6.78666 22.2952 7.15929 21.7769 7.52183C21.2586 7.86424 20.8029 7.98509 20.4097 7.88438C20.0166 7.78367 19.7396 7.57219 19.5787 7.24993C19.4179 6.92766 19.3911 6.55503 19.4983 6.13207C19.6056 5.68895 19.9004 5.31633 20.383 5.0142ZM26.2595 19.8485C26.3847 19.1838 26.474 18.5997 26.5276 18.0962C26.5991 17.5725 26.6527 17.1395 26.6885 16.797C26.7242 16.3942 26.7421 16.0518 26.7421 15.7698C26.7242 15.4274 26.7063 15.0246 26.6885 14.5613C26.6885 14.0779 26.6706 13.6046 26.6348 13.1413C26.617 12.6579 26.5902 12.2349 26.5544 11.8725C26.5187 11.4897 26.474 11.2178 26.4204 11.0566C26.3489 10.8955 26.2506 10.7243 26.1255 10.5431C25.8753 10.2006 25.5089 9.8683 25.0264 9.54604C25.4375 9.44532 25.786 9.36479 26.0719 9.30438C26.3757 9.22377 26.6259 9.1533 26.8225 9.09289C27.0369 9.01228 27.2246 8.94181 27.3855 8.8814C27.5284 8.82098 27.6982 8.76057 27.8947 8.70015C28.0556 8.65985 28.2522 8.60949 28.4845 8.54906C28.7169 8.48863 28.9849 8.41813 29.2887 8.33757L29.2083 11.0869C29.7802 10.3215 30.361 9.74747 30.9508 9.3648C31.5405 8.98212 32.0945 8.71021 32.6127 8.54906C33.2025 8.34764 33.7833 8.24693 34.3552 8.24693C35.07 8.28722 35.7312 8.41813 36.3389 8.63965C36.9644 8.86129 37.5005 9.12305 37.9472 9.42521C38.4119 9.70717 38.7872 10.0093 39.0731 10.3316C39.3591 10.6539 39.5289 10.9358 39.5825 11.1776C39.7969 11.963 39.8505 12.6882 39.7433 13.3528C39.6361 13.9973 39.4931 14.6318 39.3144 15.2562C39.1536 15.8605 39.0106 16.4647 38.8855 17.0689C38.7783 17.6732 38.823 18.3278 39.0195 19.0328C39.091 19.214 39.1625 19.3953 39.2339 19.5766C39.3055 19.7377 39.3948 19.8988 39.502 20.06C39.6092 20.2211 39.7344 20.3521 39.8773 20.4527C39.6808 20.4326 39.4842 20.4225 39.2875 20.4225C39.091 20.4023 38.9123 20.3822 38.7514 20.3621C38.5549 20.3419 38.3761 20.3218 38.2153 20.3017C38.0366 20.2815 37.7953 20.2715 37.4916 20.2715C36.9733 20.2715 36.1691 20.3017 35.0789 20.3621C35.2398 19.9391 35.3649 19.5866 35.4542 19.3047C35.5614 19.0025 35.6508 18.7609 35.7223 18.5795C35.7938 18.358 35.8474 18.1868 35.8831 18.066C36.0976 17.4818 36.2227 16.8172 36.2584 16.072C36.312 15.3267 36.2674 14.5714 36.1244 13.806C36.0708 13.5442 35.9814 13.232 35.8563 12.8694C35.7312 12.5068 35.5614 12.1544 35.347 11.812C35.1504 11.4696 34.9092 11.1776 34.6233 10.9358C34.3552 10.6942 34.0424 10.5531 33.685 10.5128C33.3275 10.4726 32.9255 10.5732 32.4787 10.815C32.0498 11.0566 31.5851 11.4998 31.0847 12.1444C30.7094 12.6882 30.4146 13.3528 30.2001 14.1384C30.0036 14.803 29.8695 15.6389 29.798 16.6459C29.7266 17.6329 29.8338 18.791 30.1197 20.1204C29.8695 20.0801 29.6372 20.06 29.4228 20.06C29.2083 20.0399 29.0296 20.0197 28.8866 19.9996C28.7079 19.9794 28.547 19.9593 28.4041 19.9391C28.2433 19.9391 28.0645 19.9291 27.868 19.9089C27.6892 19.9089 27.4658 19.9089 27.1978 19.9089C26.9297 19.8888 26.617 19.8686 26.2595 19.8485ZM48.8635 18.3076C49.3639 18.3076 49.8286 18.2472 50.2575 18.1264C50.6149 18.0257 50.9544 17.8645 51.2761 17.643C51.6156 17.4013 51.8391 17.0488 51.9463 16.5855C52.3037 16.6661 52.6075 16.7366 52.8577 16.797C53.1079 16.8373 53.3223 16.8776 53.5011 16.9179C53.6977 16.9783 53.8674 17.0186 54.0104 17.0388C54.1533 17.0791 54.3231 17.1193 54.5197 17.1596C54.6984 17.1999 54.9128 17.2502 55.1631 17.3107C55.4311 17.351 55.7439 17.4114 56.1013 17.4919C55.8333 17.4517 55.5562 17.4818 55.2703 17.5826C55.0022 17.6833 54.7431 17.7941 54.4929 17.9149C54.207 18.0559 53.9389 18.2271 53.6887 18.4285C53.5278 18.5494 53.3402 18.7306 53.1258 18.9723C52.9292 19.214 52.6433 19.4457 52.268 19.6672C51.8927 19.8888 51.3922 20.0801 50.7668 20.2412C50.1592 20.3822 49.3728 20.4326 48.4078 20.3923C47.2462 20.3521 46.2722 20.1204 45.4859 19.6974C44.6995 19.2543 44.0651 18.7206 43.5826 18.0962C43.1 17.4517 42.7516 16.7568 42.5372 16.0115C42.3227 15.2663 42.2065 14.5714 42.1886 13.9269C42.1708 13.2823 42.3406 12.6076 42.698 11.9026C43.0554 11.1977 43.5558 10.5531 44.1992 9.96902C44.8604 9.3849 45.6556 8.91156 46.585 8.54906C47.5142 8.16636 48.5329 7.97502 49.6409 7.97502C50.2842 7.97502 50.874 8.06566 51.4102 8.24693C51.9641 8.40806 52.4645 8.6296 52.9113 8.91156C53.376 9.19361 53.7781 9.51587 54.1176 9.87836C54.4572 10.2208 54.7431 10.5732 54.9754 10.9358C55.2078 11.3185 55.4044 11.7214 55.5652 12.1444C55.7081 12.5068 55.8243 12.9198 55.9136 13.3831C56.003 13.8463 56.0298 14.3196 55.9941 14.803C54.6359 14.8433 53.5368 14.8736 52.6969 14.8937C51.8748 14.9138 51.2314 14.9238 50.7668 14.9238H49.5605H48.6491C48.3274 14.9238 47.9074 14.934 47.3891 14.9541C46.8709 14.9742 46.2364 15.0044 45.4859 15.0447C45.5752 15.8504 45.7986 16.4747 46.1561 16.9179C46.5313 17.3408 46.9245 17.6631 47.3355 17.8847C47.8002 18.1264 48.3095 18.2674 48.8635 18.3076ZM46.4509 12.8694C47.0228 12.9097 47.4964 12.94 47.8717 12.9601C48.2648 12.9802 48.5865 13.0004 48.8367 13.0205C49.1047 13.0406 49.3192 13.0507 49.48 13.0507H50.1502C50.597 13.0507 51.428 13.0205 52.6433 12.9601C52.5897 12.0738 52.4199 11.3991 52.1339 10.9358C51.8658 10.4726 51.5799 10.1302 51.2761 9.90861C50.9187 9.66695 50.5255 9.52593 50.0966 9.48562C48.935 9.50582 48.0683 9.77773 47.4964 10.3013C46.9424 10.825 46.5939 11.6811 46.4509 12.8694ZM67.098 0.391709C68.063 0.431992 69.037 0.633408 70.0199 0.995954C71.0207 1.33836 71.9411 1.90233 72.781 2.68785C73.6209 3.45323 74.3358 4.45024 74.9255 5.67888C75.5153 6.88737 75.8816 8.36778 76.0246 10.1201C76.1497 11.5502 75.9889 12.9701 75.5421 14.38C75.1132 15.7698 74.5145 17.0488 73.7461 18.217C72.9775 19.3853 72.093 20.3822 71.0922 21.208C70.0914 22.0137 69.0906 22.5474 68.0898 22.8093C67.4822 22.9704 66.812 22.9906 66.0794 22.8697C65.3645 22.7288 64.6318 22.477 63.8812 22.1144C63.1485 21.7317 62.4247 21.2483 61.7099 20.6642C61.0128 20.0801 60.3784 19.4154 59.8066 18.6702C59.2347 17.9048 58.7522 17.0791 58.359 16.1928C57.9837 15.3066 57.7514 14.38 57.662 13.4132C57.5727 12.6076 57.5638 11.7214 57.6353 10.7546C57.7246 9.76758 57.8944 8.79073 58.1446 7.82395C58.4127 6.83702 58.779 5.89036 59.2436 4.98399C59.7261 4.05748 60.3338 3.25181 61.0665 2.567C61.7992 1.86204 62.657 1.31822 63.64 0.935531C64.6407 0.532699 65.7934 0.351425 67.098 0.391709ZM62.2996 12.6278C62.0494 14.7829 62.2281 16.5151 62.8358 17.8242C63.4612 19.1335 64.3994 19.9291 65.6505 20.2111C66.258 20.3521 66.8389 20.2111 67.3928 19.7881C67.9647 19.345 68.483 18.7105 68.9477 17.8847C69.4123 17.0589 69.8144 16.0921 70.1539 14.9843C70.4935 13.8765 70.7437 12.7183 70.9045 11.5099C71.0653 10.3013 71.0743 9.21372 70.9313 8.24693C70.8062 7.26 70.5828 6.42412 70.2611 5.7393C69.9395 5.03435 69.5463 4.49052 69.0817 4.10784C68.6349 3.72514 68.1703 3.51366 67.6877 3.47337C66.8478 3.41295 66.115 3.66472 65.4896 4.22868C64.8641 4.7725 64.3369 5.48753 63.908 6.37376C63.4791 7.26 63.1306 8.257 62.8625 9.3648C62.6123 10.4726 62.4247 11.5602 62.2996 12.6278ZM78.229 19.8485C78.3541 19.1838 78.4433 18.5997 78.4967 18.0962C78.5683 17.5725 78.6217 17.1395 78.6576 16.797C78.6934 16.3942 78.7109 16.0518 78.7109 15.7698C78.6934 15.4274 78.6751 15.0246 78.6576 14.5613C78.6576 14.0779 78.64 13.6046 78.6042 13.1413C78.5859 12.6579 78.5592 12.2349 78.5234 11.8725C78.4875 11.4897 78.4433 11.2178 78.3899 11.0566C78.3182 10.8955 78.2199 10.7243 78.0948 10.5431C77.8447 10.2006 77.478 9.8683 76.9953 9.54604C77.4063 9.44532 77.7548 9.36479 78.0407 9.30438C78.3449 9.22377 78.595 9.1533 78.7918 9.09289C79.006 9.01228 79.1936 8.94181 79.3545 8.8814C79.4978 8.82098 79.6671 8.76057 79.8638 8.70015C80.0247 8.65985 80.2214 8.60949 80.454 8.54906C80.6858 8.48863 80.9542 8.41813 81.2577 8.33757L81.1776 11.0869C81.7495 10.3215 82.3298 9.74747 82.9199 9.3648C83.5093 8.98212 84.0637 8.71021 84.5822 8.54906C85.1716 8.34764 85.7526 8.24693 86.3245 8.24693C87.039 8.28722 87.7 8.41813 88.3078 8.63965C88.9338 8.86129 89.4698 9.12305 89.9166 9.42521C90.381 9.70717 90.7561 10.0093 91.0421 10.3316C91.328 10.6539 91.4981 10.9358 91.5514 11.1776C91.7657 11.963 91.8198 12.6882 91.7123 13.3528C91.6056 13.9973 91.4622 14.6318 91.2838 15.2562C91.1229 15.8605 90.9796 16.4647 90.8545 17.0689C90.7478 17.6732 90.792 18.3278 90.9887 19.0328C91.0604 19.214 91.1313 19.3953 91.203 19.5766C91.2746 19.7377 91.3639 19.8988 91.4714 20.06C91.5781 20.2211 91.7032 20.3521 91.8465 20.4527C91.6498 20.4326 91.4531 20.4225 91.2563 20.4225C91.0604 20.4023 90.8812 20.3822 90.7203 20.3621C90.5243 20.3419 90.3452 20.3218 90.1843 20.3017C90.0058 20.2815 89.7641 20.2715 89.4607 20.2715C88.9422 20.2715 88.1385 20.3017 87.0481 20.3621C87.209 19.9391 87.334 19.5866 87.4233 19.3047C87.5308 19.0025 87.62 18.7609 87.6917 18.5795C87.7626 18.358 87.8167 18.1868 87.8525 18.066C88.0668 17.4818 88.1919 16.8172 88.2277 16.072C88.2811 15.3267 88.2368 14.5714 88.0935 13.806C88.0401 13.5442 87.9509 13.232 87.8251 12.8694C87.7 12.5068 87.5308 12.1544 87.3165 11.812C87.1198 11.4696 86.8781 11.1776 86.5921 10.9358C86.3245 10.6942 86.0119 10.5531 85.6543 10.5128C85.2966 10.4726 84.8948 10.5732 84.448 10.815C84.0187 11.0566 83.5543 11.4998 83.0541 12.1444C82.6782 12.6882 82.3839 13.3528 82.1696 14.1384C81.9729 14.803 81.8387 15.6389 81.767 16.6459C81.6954 17.6329 81.8029 18.791 82.0888 20.1204C81.8387 20.0801 81.6061 20.06 81.3919 20.06C81.1776 20.0399 80.9984 20.0197 80.8558 19.9996C80.6774 19.9794 80.5165 19.9593 80.3732 19.9391C80.2123 19.9391 80.0339 19.9291 79.8371 19.9089C79.6587 19.9089 79.4353 19.9089 79.1669 19.9089C78.8985 19.8888 78.5859 19.8686 78.229 19.8485ZM100.833 18.3076C101.333 18.3076 101.798 18.2472 102.226 18.1264C102.584 18.0257 102.923 17.8645 103.245 17.643C103.584 17.4013 103.808 17.0488 103.915 16.5855C104.273 16.6661 104.576 16.7366 104.827 16.797C105.077 16.8373 105.292 16.8776 105.47 16.9179C105.667 16.9783 105.837 17.0186 105.979 17.0388C106.123 17.0791 106.292 17.1193 106.489 17.1596C106.667 17.1999 106.882 17.2502 107.132 17.3107C107.4 17.351 107.713 17.4114 108.07 17.4919C107.803 17.4517 107.525 17.4818 107.239 17.5826C106.971 17.6833 106.712 17.7941 106.462 17.9149C106.176 18.0559 105.908 18.2271 105.658 18.4285C105.497 18.5494 105.309 18.7306 105.095 18.9723C104.898 19.214 104.612 19.4457 104.237 19.6672C103.862 19.8888 103.362 20.0801 102.736 20.2412C102.128 20.3822 101.342 20.4326 100.377 20.3923C99.2153 20.3521 98.2416 20.1204 97.4547 19.6974C96.6686 19.2543 96.0342 18.7206 95.5515 18.0962C95.0688 17.4517 94.7204 16.7568 94.5061 16.0115C94.2919 15.2663 94.176 14.5714 94.1577 13.9269C94.1401 13.2823 94.3094 12.6076 94.667 11.9026C95.0246 11.1977 95.5248 10.5531 96.1684 9.96902C96.8295 9.3849 97.6247 8.91156 98.5542 8.54906C99.4837 8.16636 100.502 7.97502 101.61 7.97502C102.253 7.97502 102.843 8.06566 103.379 8.24693C103.934 8.40806 104.434 8.6296 104.881 8.91156C105.345 9.19361 105.747 9.51587 106.087 9.87836C106.426 10.2208 106.712 10.5732 106.945 10.9358C107.177 11.3185 107.373 11.7214 107.534 12.1444C107.678 12.5068 107.793 12.9198 107.883 13.3831C107.972 13.8463 107.999 14.3196 107.963 14.803C106.605 14.8433 105.506 14.8736 104.666 14.8937C103.844 14.9138 103.201 14.9238 102.736 14.9238H101.53H100.618C100.297 14.9238 99.8764 14.934 99.3587 14.9541C98.8402 14.9742 98.2058 15.0044 97.4547 15.0447C97.5447 15.8504 97.7681 16.4747 98.1249 16.9179C98.5001 17.3408 98.8935 17.6631 99.3045 17.8847C99.7697 18.1264 100.279 18.2674 100.833 18.3076ZM98.42 12.8694C98.9919 12.9097 99.4654 12.94 99.8406 12.9601C100.234 12.9802 100.556 13.0004 100.806 13.0205C101.074 13.0406 101.289 13.0507 101.449 13.0507H102.12C102.567 13.0507 103.397 13.0205 104.612 12.9601C104.559 12.0738 104.389 11.3991 104.103 10.9358C103.835 10.4726 103.549 10.1302 103.245 9.90861C102.888 9.66695 102.495 9.52593 102.066 9.48562C100.904 9.50582 100.037 9.77773 99.4654 10.3013C98.9118 10.825 98.5634 11.6811 98.42 12.8694ZM110.114 1.87211C110.453 2.1541 110.793 2.36558 111.132 2.50657C111.49 2.62743 111.812 2.70799 112.098 2.74828C112.419 2.8087 112.741 2.81877 113.062 2.77849C113.367 2.73821 113.679 2.61735 114.001 2.41594C114.322 2.21452 114.698 2.00304 115.126 1.78148C115.556 1.55992 116.056 1.36858 116.628 1.20745C117.217 1.02617 117.923 0.935531 118.745 0.935531C119.103 0.935531 119.478 1.0161 119.871 1.17723C120.282 1.33836 120.676 1.54985 121.051 1.81169C121.426 2.05339 121.765 2.3253 122.07 2.62743C122.392 2.92955 122.632 3.23168 122.793 3.5338C122.972 3.83592 123.097 4.32939 123.168 5.0142C123.24 5.67888 123.267 6.40397 123.249 7.18949C123.231 7.97502 123.168 8.75051 123.061 9.51587C122.972 10.2812 122.838 10.9057 122.659 11.3891C122.445 11.812 122.034 12.3558 121.426 13.0205C120.908 13.5845 120.131 14.3096 119.094 15.1958C118.057 16.082 116.664 17.1395 114.912 18.3681C115.948 18.3479 116.815 18.3178 117.512 18.2775C118.227 18.217 118.808 18.1566 119.255 18.0962C119.773 18.0156 120.184 17.935 120.488 17.8545C120.756 17.7336 121.042 17.5625 121.345 17.3408C121.596 17.1395 121.864 16.8776 122.15 16.5554C122.454 16.2331 122.748 15.8101 123.034 15.2864C123.088 16.374 123.142 17.2301 123.195 17.8545C123.231 18.217 123.258 18.5293 123.276 18.791C123.294 19.0328 123.312 19.3147 123.329 19.637C123.347 19.9189 123.356 20.2412 123.356 20.6038C123.374 20.9664 123.401 21.349 123.437 21.7519C122.543 21.4901 121.73 21.2886 120.997 21.1476C120.264 20.9865 119.639 20.8757 119.12 20.8153C118.513 20.7348 117.968 20.6945 117.486 20.6945C116.985 20.7146 116.431 20.7649 115.823 20.8455C115.287 20.9261 114.644 21.0469 113.893 21.208C113.161 21.349 112.33 21.5605 111.4 21.8425C111.329 21.6209 111.267 21.3994 111.212 21.1778C111.159 20.9361 111.114 20.7045 111.079 20.483C111.025 20.2412 110.981 19.9996 110.945 19.7578C110.909 19.5162 110.873 19.2846 110.837 19.063C110.802 18.8616 110.775 18.6501 110.757 18.4285C110.739 18.207 110.721 17.9955 110.703 17.7941C112.133 16.7668 113.295 15.8404 114.189 15.0145C115.082 14.1685 115.787 13.4535 116.306 12.8694C116.896 12.1846 117.342 11.5602 117.646 10.9962C117.95 10.3115 118.2 9.55609 118.397 8.73032C118.593 7.90453 118.656 7.13914 118.584 6.43419C118.531 5.72923 118.317 5.1552 117.942 4.71208C117.566 4.24883 116.967 4.04741 116.145 4.10784C115.609 4.14812 115.1 4.35961 114.617 4.7423C114.153 5.12498 113.723 5.58824 113.331 6.13207C112.937 6.67589 112.589 7.26 112.285 7.88438C111.981 8.48863 111.722 9.06264 111.508 9.60645C111.311 10.1503 111.15 10.6035 111.025 10.9661C110.918 11.3286 110.864 11.5199 110.864 11.54C110.846 11.5803 110.82 11.4293 110.784 11.0869C110.766 10.7445 110.739 10.3215 110.703 9.81794C110.686 9.29433 110.659 8.75051 110.623 8.18651C110.587 7.62254 110.551 7.14922 110.516 6.76653C110.498 6.4644 110.471 6.07164 110.436 5.58824C110.382 4.80272 110.275 3.56401 110.114 1.87211ZM125.989 4.44017C126.615 4.21861 127.124 4.03733 127.517 3.89634C127.91 3.73521 128.232 3.60429 128.482 3.50358C128.768 3.38274 128.983 3.27196 129.126 3.17125L129.769 2.8087C130.019 2.66771 130.341 2.48644 130.734 2.26488C131.127 2.02317 131.637 1.72105 132.262 1.35851C132.119 2.12388 132.012 2.84898 131.94 3.5338C131.887 4.19847 131.842 4.79265 131.806 5.31633C131.753 5.92058 131.726 6.47447 131.726 6.97801C131.708 7.40099 131.681 7.96495 131.645 8.6699C131.628 9.37485 131.601 10.1402 131.565 10.9661C131.529 11.7918 131.493 12.6378 131.458 13.5039C131.422 14.37 131.395 15.1857 131.378 15.9511C131.378 16.6963 131.386 17.3408 131.404 17.8847C131.44 18.4285 131.503 18.8012 131.592 19.0025C131.681 19.2443 131.797 19.4759 131.94 19.6974C132.065 19.8988 132.209 20.1304 132.369 20.3923C132.548 20.634 132.762 20.8757 133.012 21.1174C132.601 21.2182 132.217 21.3087 131.859 21.3893C131.503 21.4498 131.19 21.5001 130.922 21.5404C130.6 21.6008 130.314 21.6512 130.064 21.6914C129.795 21.7116 129.429 21.762 128.965 21.8425C128.572 21.9029 128.071 21.9835 127.464 22.0842C126.856 22.1648 126.106 22.2554 125.212 22.3561C125.676 22.0339 126.043 21.7217 126.311 21.4195C126.597 21.1174 126.811 20.8556 126.954 20.634C127.115 20.3722 127.214 20.1204 127.249 19.8787C127.267 19.7176 127.294 19.2846 127.329 18.5795C127.383 17.8545 127.428 17.0085 127.464 16.0417C127.517 15.0548 127.562 14.0074 127.598 12.8997C127.651 11.7717 127.687 10.7243 127.705 9.75753C127.723 8.79073 127.731 7.96495 127.731 7.28013C127.731 6.59532 127.705 6.18242 127.651 6.04143C127.58 5.90043 127.473 5.7393 127.329 5.55803C127.204 5.3969 127.034 5.22569 126.82 5.04442C126.623 4.86314 126.347 4.66173 125.989 4.44017Z" fill="#394BA7"/>
</svg>
